<?xml version="1.0" standalone="no"?>
<!DOCTYPE svg PUBLIC "-//W3C//DTD SVG 20010904//EN"
 "http://www.w3.org/TR/2001/REC-SVG-20010904/DTD/svg10.dtd">
<svg version="1.0" xmlns="http://www.w3.org/2000/svg"
 width="250.000000pt" height="250.000000pt" viewBox="0 0 250.000000 250.000000"
 preserveAspectRatio="xMidYMid meet">
<metadata>
Created by potrace 1.14, written by Peter Selinger 2001-2017
</metadata>
<g transform="translate(0.000000,250.000000) scale(0.100000,-0.100000)"
fill="#000000" stroke="none">
<path d="M968 1814 c-87 -62 -120 -165 -83 -260 79 -207 316 -170 315 51 -1
118 -83 235 -165 235 -17 0 -47 -12 -67 -26z"/>
<path d="M1404 1818 c-64 -45 -103 -128 -103 -218 -1 -171 151 -244 264 -126
96 99 85 250 -24 334 -51 38 -93 41 -137 10z"/>
<path d="M675 1526 c-31 -13 -76 -70 -94 -119 -47 -126 59 -287 190 -287 53 0
92 23 119 72 18 33 21 51 18 108 -3 58 -9 75 -41 124 -58 87 -133 127 -192
102z"/>
<path d="M1733 1519 c-108 -54 -172 -210 -129 -312 44 -107 180 -118 265 -22
87 99 82 223 -11 312 -45 43 -74 48 -125 22z"/>
<path d="M1185 1401 c-81 -21 -142 -79 -216 -204 -23 -40 -65 -105 -92 -145
-54 -80 -87 -156 -87 -201 0 -64 43 -126 112 -162 68 -35 103 -34 225 6 123
41 113 42 265 -14 135 -49 233 -13 298 111 40 74 21 143 -70 262 -29 37 -75
105 -102 150 -58 94 -108 150 -160 177 -42 21 -129 32 -173 20z"/>
</g>
</svg>
